M48
; DRILL file KiCad 10.0.5 date 2026-07-30T00:23:23
; FORMAT={-:-/ absolute / metric / decimal}
; #@! TF.CreationDate,2026-07-30T00:23:23+02:00
; #@! TF.GenerationSoftware,Kicad,Pcbnew,10.0.5
; #@! TF.FileFunction,NonPlated,1,2,NPTH
FMAT,2
METRIC
; #@! TA.AperFunction,NonPlated,NPTH,ComponentDrill
T1C1.750
; #@! TA.AperFunction,NonPlated,NPTH,ComponentDrill
T2C1.850
; #@! TA.AperFunction,NonPlated,NPTH,ComponentDrill
T3C2.200
; #@! TA.AperFunction,NonPlated,NPTH,ComponentDrill
T4C3.048
; #@! TA.AperFunction,NonPlated,NPTH,ComponentDrill
T5C3.988
%
G90
G05
T1
X-190.976Y-2.699
X-190.976Y-31.274
X-188.595Y-88.424
X-188.595Y-107.474
X-186.214Y-50.324
X-183.832Y-69.374
X-180.816Y-2.699
X-180.816Y-31.274
X-178.435Y-88.424
X-178.435Y-107.474
X-176.054Y-50.324
X-173.672Y-69.374
X-171.926Y-31.274
X-167.164Y-88.424
X-164.782Y-107.474
X-162.401Y-50.324
X-161.766Y-31.274
X-157.639Y-69.374
X-157.004Y-88.424
X-154.623Y-107.474
X-152.876Y-2.699
X-152.876Y-31.274
X-152.241Y-50.324
X-148.114Y-88.424
X-147.479Y-69.374
X-143.351Y-50.324
X-142.716Y-2.699
X-142.716Y-31.274
X-140.97Y-107.474
X-138.589Y-69.374
X-137.954Y-88.424
X-133.826Y-2.699
X-133.826Y-31.274
X-133.191Y-50.324
X-130.81Y-107.474
X-129.064Y-88.424
X-128.429Y-69.374
X-124.301Y-50.324
X-123.666Y-2.699
X-123.666Y-31.274
X-119.539Y-69.374
X-118.904Y-88.424
X-114.776Y-2.699
X-114.776Y-31.274
X-114.141Y-50.324
X-110.014Y-88.424
X-109.379Y-69.374
X-105.251Y-50.324
X-104.616Y-2.699
X-104.616Y-31.274
X-100.489Y-69.374
X-99.854Y-88.424
X-95.726Y-2.699
X-95.726Y-31.274
X-95.091Y-50.324
X-90.964Y-88.424
X-90.329Y-69.374
X-86.201Y-50.324
X-85.566Y-2.699
X-85.566Y-31.274
X-81.439Y-69.374
X-80.804Y-88.424
X-76.676Y-31.274
X-76.041Y-50.324
X-71.914Y-88.424
X-71.279Y-69.374
X-69.532Y-107.474
X-67.151Y-2.699
X-67.151Y-50.324
X-66.516Y-31.274
X-62.389Y-69.374
X-61.754Y-88.424
X-59.372Y-107.474
X-57.626Y-31.274
X-56.991Y-2.699
X-56.991Y-50.324
X-52.864Y-88.424
X-52.229Y-69.374
X-48.101Y-2.699
X-48.101Y-50.324
X-47.466Y-31.274
X-43.339Y-69.374
X-42.704Y-88.424
X-38.576Y-31.274
X-37.941Y-2.699
X-37.941Y-50.324
X-33.814Y-88.424
X-33.179Y-69.374
X-29.051Y-2.699
X-29.051Y-50.324
X-28.416Y-31.274
X-24.289Y-69.374
X-23.654Y-88.424
X-19.526Y-31.274
X-18.891Y-2.699
X-18.891Y-50.324
X-14.764Y-88.424
X-14.129Y-69.374
X-10.001Y-2.699
X-10.001Y-50.324
X-9.366Y-31.274
X-5.239Y-69.374
X-4.604Y-88.424
X-0.476Y-31.274
X0.159Y-2.699
X0.159Y-50.324
X1.905Y-107.474
X4.286Y-88.424
X4.921Y-69.374
X9.049Y-50.324
X9.684Y-31.274
X12.065Y-107.474
X13.811Y-69.374
X14.446Y-88.424
X18.574Y-2.699
X18.574Y-31.274
X19.209Y-50.324
X23.336Y-88.424
X23.971Y-69.374
X25.717Y-107.474
X28.099Y-50.324
X28.734Y-2.699
X28.734Y-31.274
X32.861Y-69.374
X33.496Y-88.424
X35.877Y-107.474
X37.624Y-2.699
X37.624Y-31.274
X38.259Y-50.324
X43.021Y-69.374
X47.149Y-50.324
X47.784Y-2.699
X47.784Y-31.274
X49.53Y-107.474
X51.911Y-69.374
X56.674Y-2.699
X57.309Y-50.324
X59.055Y-88.424
X59.69Y-107.474
X62.071Y-69.374
X66.199Y-31.274
X66.834Y-2.699
X69.215Y-88.424
X73.343Y-59.849
X73.343Y-107.474
X75.724Y-2.699
X76.359Y-31.274
X83.502Y-59.849
X83.502Y-107.474
X85.884Y-2.699
X128.27Y-31.274
X128.27Y-50.324
X128.27Y-107.474
X138.43Y-31.274
X138.43Y-50.324
X138.43Y-107.474
X147.32Y-31.274
X147.32Y-50.324
X147.32Y-88.424
X147.32Y-107.474
X157.48Y-31.274
X157.48Y-50.324
X157.48Y-88.424
X157.48Y-107.474
X166.37Y-31.274
X166.37Y-50.324
X166.37Y-107.474
X176.53Y-31.274
X176.53Y-50.324
X176.53Y-107.474
T2
X104.731Y6.683
X109.581Y6.683
T3
X104.431Y9.713
X109.881Y9.713
T4
X-114.459Y-100.489
X-14.446Y-100.489
X52.229Y-81.439
X59.372Y-24.289
X71.438Y-47.942
X71.438Y-71.755
X76.041Y-81.439
X83.185Y-24.289
T5
X-185.896Y-2.699
X-185.896Y-31.274
X-183.515Y-88.424
X-183.515Y-107.474
X-181.134Y-50.324
X-178.752Y-69.374
X-166.846Y-31.274
X-162.084Y-88.424
X-159.702Y-107.474
X-157.321Y-50.324
X-152.559Y-69.374
X-147.796Y-2.699
X-147.796Y-31.274
X-143.034Y-88.424
X-138.271Y-50.324
X-135.89Y-107.474
X-133.509Y-69.374
X-128.746Y-2.699
X-128.746Y-31.274
X-123.984Y-88.424
X-119.221Y-50.324
X-114.459Y-69.374
X-114.459Y-115.729
X-109.696Y-2.699
X-109.696Y-31.274
X-104.934Y-88.424
X-100.171Y-50.324
X-95.409Y-69.374
X-90.646Y-2.699
X-90.646Y-31.274
X-85.884Y-88.424
X-81.121Y-50.324
X-76.359Y-69.374
X-71.596Y-31.274
X-66.834Y-88.424
X-64.453Y-107.474
X-62.071Y-2.699
X-62.071Y-50.324
X-57.309Y-69.374
X-52.546Y-31.274
X-47.784Y-88.424
X-43.021Y-2.699
X-43.021Y-50.324
X-38.259Y-69.374
X-33.496Y-31.274
X-28.734Y-88.424
X-23.971Y-2.699
X-23.971Y-50.324
X-19.209Y-69.374
X-14.446Y-31.274
X-14.446Y-115.729
X-9.684Y-88.424
X-4.921Y-2.699
X-4.921Y-50.324
X-0.159Y-69.374
X4.604Y-31.274
X6.985Y-107.474
X9.366Y-88.424
X14.129Y-50.324
X18.891Y-69.374
X23.654Y-2.699
X23.654Y-31.274
X28.416Y-88.424
X30.797Y-107.474
X33.179Y-50.324
X37.941Y-69.374
X42.704Y-2.699
X42.704Y-31.274
X52.229Y-50.324
X52.229Y-96.679
X54.61Y-107.474
X56.991Y-69.374
X59.372Y-39.529
X61.754Y-2.699
X64.135Y-88.424
X71.279Y-31.274
X76.041Y-96.679
X78.422Y-59.849
X78.422Y-107.474
X80.804Y-2.699
X83.185Y-39.529
X86.677Y-47.942
X86.677Y-71.755
X133.35Y-31.274
X133.35Y-50.324
X133.35Y-107.474
X152.4Y-31.274
X152.4Y-50.324
X152.4Y-88.424
X152.4Y-107.474
X171.45Y-31.274
X171.45Y-50.324
X171.45Y-107.474
M30
