M48
; DRILL file KiCad 10.0.5 date 2026-07-30T00:23:23
; FORMAT={-:-/ absolute / metric / decimal}
; #@! TF.CreationDate,2026-07-30T00:23:23+02:00
; #@! TF.GenerationSoftware,Kicad,Pcbnew,10.0.5
; #@! TF.FileFunction,Plated,1,2,PTH
FMAT,2
METRIC
; #@! TA.AperFunction,Plated,PTH,ViaDrill
T1C0.300
; #@! TA.AperFunction,Plated,PTH,ComponentDrill
T2C0.800
; #@! TA.AperFunction,Plated,PTH,ComponentDrill
T3C1.524
%
G90
G05
T1
X-189.706Y-18.455
X-159.782Y-17.859
X-151.606Y-17.264
X-132.556Y-16.669
X-113.506Y-16.073
X-94.456Y-15.478
X-66.481Y-14.883
X-65.881Y-14.288
X-46.831Y-13.692
X-27.826Y-13.097
X-8.731Y-12.502
X19.844Y-9.684
X21.324Y-12.013
X26.789Y-97.031
X26.789Y-98.231
X27.278Y-46.541
X27.531Y-45.097
X36.803Y-27.491
X37.651Y-26.643
X39.291Y-8.334
X58.341Y-10.12
X76.994Y-9.525
X84.534Y8.93
X84.534Y7.662
X87.538Y-13.097
X88.106Y-13.688
X88.702Y-14.288
X89.297Y-14.878
X89.892Y-15.478
X90.488Y-9.52
X90.488Y-16.069
X91.076Y-16.661
X91.083Y-10.125
X91.607Y-17.259
X91.678Y-10.725
X92.274Y-11.325
X92.274Y-12.525
X92.274Y-17.855
X92.869Y-11.925
X93.05Y-18.455
X97.466Y-13.125
X97.466Y-15.557
X97.466Y-18.098
X97.466Y-23.177
X97.466Y-25.717
X97.466Y-28.258
X97.466Y-30.797
X97.466Y-35.877
X97.466Y-38.417
X100.013Y-13.125
X119.063Y-9.525
X119.663Y-10.12
X120.263Y-10.716
X120.263Y-24.841
X120.863Y-11.311
X121.463Y-11.906
X122.063Y-12.502
X123.825Y-111.919
X124.43Y-93.19
T2
X-176.371Y0.159
X-176.371Y-7.461
X-176.371Y-28.416
X-176.371Y-36.036
X-171.609Y-85.566
X-171.609Y-93.186
X-171.609Y-104.616
X-171.609Y-112.236
X-166.846Y-47.466
X-166.846Y-55.086
X-162.084Y-66.516
X-162.084Y-74.136
X-157.321Y-28.416
X-157.321Y-36.036
X-152.559Y-85.566
X-152.559Y-93.186
X-147.796Y-47.466
X-147.796Y-55.086
X-147.796Y-104.616
X-147.796Y-112.236
X-143.034Y-66.516
X-143.034Y-74.136
X-138.271Y0.159
X-138.271Y-7.461
X-138.271Y-28.416
X-138.271Y-36.036
X-133.509Y-85.566
X-133.509Y-93.186
X-128.746Y-47.466
X-128.746Y-55.086
X-123.984Y-66.516
X-123.984Y-74.136
X-123.984Y-104.616
X-123.984Y-112.236
X-119.221Y0.159
X-119.221Y-7.461
X-119.221Y-28.416
X-119.221Y-36.036
X-114.459Y-85.566
X-114.459Y-93.186
X-109.696Y-47.466
X-109.696Y-55.086
X-104.934Y-66.516
X-104.934Y-74.136
X-100.171Y0.159
X-100.171Y-7.461
X-100.171Y-28.416
X-100.171Y-36.036
X-95.409Y-85.566
X-95.409Y-93.186
X-90.646Y-47.466
X-90.646Y-55.086
X-85.884Y-66.516
X-85.884Y-74.136
X-81.121Y0.159
X-81.121Y-7.461
X-81.121Y-28.416
X-81.121Y-36.036
X-76.359Y-85.566
X-76.359Y-93.186
X-71.596Y-47.466
X-71.596Y-55.086
X-66.834Y-66.516
X-66.834Y-74.136
X-62.071Y-28.416
X-62.071Y-36.036
X-57.309Y-85.566
X-57.309Y-93.186
X-52.546Y0.159
X-52.546Y-7.461
X-52.546Y-47.466
X-52.546Y-55.086
X-47.784Y-66.516
X-47.784Y-74.136
X-43.021Y-28.416
X-43.021Y-36.036
X-38.259Y-85.566
X-38.259Y-93.186
X-33.496Y0.159
X-33.496Y-7.461
X-33.496Y-47.466
X-33.496Y-55.086
X-28.734Y-66.516
X-28.734Y-74.136
X-23.971Y-28.416
X-23.971Y-36.036
X-19.209Y-85.566
X-19.209Y-93.186
X-14.446Y0.159
X-14.446Y-7.461
X-14.446Y-47.466
X-14.446Y-55.086
X-9.684Y-66.516
X-9.684Y-74.136
X-4.921Y-28.416
X-4.921Y-36.036
X-4.921Y-104.616
X-4.921Y-112.236
X-0.159Y-85.566
X-0.159Y-93.186
X4.604Y0.159
X4.604Y-7.461
X4.604Y-47.466
X4.604Y-55.086
X9.366Y-66.516
X9.366Y-74.136
X14.129Y-28.416
X14.129Y-36.036
X18.891Y-85.566
X18.891Y-93.186
X18.891Y-104.616
X18.891Y-112.236
X23.654Y-47.466
X23.654Y-55.086
X28.416Y-66.516
X28.416Y-74.136
X33.179Y0.159
X33.179Y-7.461
X33.179Y-28.416
X33.179Y-36.036
X37.941Y-85.566
X37.941Y-93.186
X42.704Y-47.466
X42.704Y-55.086
X42.704Y-104.616
X42.704Y-112.236
X47.466Y-66.516
X47.466Y-74.136
X52.229Y0.159
X52.229Y-7.461
X52.229Y-28.416
X52.229Y-36.036
X61.754Y-47.466
X61.754Y-55.086
X66.516Y-66.516
X66.516Y-74.136
X66.516Y-104.616
X66.516Y-112.236
X71.279Y0.159
X71.279Y-7.461
X90.329Y0.159
X90.329Y-7.461
X90.329Y-28.416
X90.329Y-36.036
X90.329Y-47.466
X90.329Y-55.086
X90.329Y-85.566
X90.329Y-93.186
X90.329Y-104.616
X90.329Y-112.236
X142.875Y-28.337
X142.875Y-35.957
X142.875Y-47.466
X142.875Y-55.086
X142.875Y-104.616
X142.875Y-112.236
X161.925Y-28.337
X161.925Y-35.957
X161.925Y-47.625
X161.925Y-55.245
X161.925Y-85.566
X161.925Y-93.186
X161.925Y-104.616
X161.925Y-112.236
X180.975Y-47.466
X180.975Y-55.086
X180.975Y-104.616
X180.975Y-112.236
X180.975Y-28.337
X180.975Y-35.957
T3
X-189.706Y-0.159
X-189.706Y-28.734
X-187.325Y-85.884
X-187.325Y-104.934
X-184.944Y-47.784
X-183.356Y2.381
X-183.356Y-26.194
X-182.562Y-66.834
X-180.975Y-83.344
X-180.975Y-102.394
X-178.594Y-45.244
X-176.213Y-64.294
X-170.656Y-28.734
X-165.894Y-85.884
X-164.306Y-26.194
X-163.512Y-104.934
X-161.131Y-47.784
X-159.544Y-83.344
X-157.162Y-102.394
X-156.369Y-66.834
X-154.781Y-45.244
X-151.606Y-0.159
X-151.606Y-28.734
X-150.019Y-64.294
X-146.844Y-85.884
X-145.256Y2.381
X-145.256Y-26.194
X-142.081Y-47.784
X-140.494Y-83.344
X-139.7Y-104.934
X-137.319Y-66.834
X-135.731Y-45.244
X-133.35Y-102.394
X-132.556Y-0.159
X-132.556Y-28.734
X-130.969Y-64.294
X-127.794Y-85.884
X-126.206Y2.381
X-126.206Y-26.194
X-123.031Y-47.784
X-121.444Y-83.344
X-118.269Y-66.834
X-116.681Y-45.244
X-113.506Y-0.159
X-113.506Y-28.734
X-111.919Y-64.294
X-108.744Y-85.884
X-107.156Y2.381
X-107.156Y-26.194
X-103.981Y-47.784
X-102.394Y-83.344
X-99.219Y-66.834
X-97.631Y-45.244
X-94.456Y-0.159
X-94.456Y-28.734
X-92.869Y-64.294
X-89.694Y-85.884
X-88.106Y2.381
X-88.106Y-26.194
X-84.931Y-47.784
X-83.344Y-83.344
X-80.169Y-66.834
X-78.581Y-45.244
X-75.406Y-28.734
X-73.819Y-64.294
X-70.644Y-85.884
X-69.056Y-26.194
X-68.263Y-104.934
X-65.881Y-0.159
X-65.881Y-47.784
X-64.294Y-83.344
X-61.912Y-102.394
X-61.119Y-66.834
X-59.531Y2.381
X-59.531Y-45.244
X-56.356Y-28.734
X-54.769Y-64.294
X-51.594Y-85.884
X-50.006Y-26.194
X-46.831Y-0.159
X-46.831Y-47.784
X-45.244Y-83.344
X-42.069Y-66.834
X-40.481Y2.381
X-40.481Y-45.244
X-37.306Y-28.734
X-35.719Y-64.294
X-32.544Y-85.884
X-30.956Y-26.194
X-27.781Y-0.159
X-27.781Y-47.784
X-26.194Y-83.344
X-23.019Y-66.834
X-21.431Y2.381
X-21.431Y-45.244
X-18.256Y-28.734
X-16.669Y-64.294
X-13.494Y-85.884
X-11.906Y-26.194
X-8.731Y-0.159
X-8.731Y-47.784
X-7.144Y-83.344
X-3.969Y-66.834
X-2.381Y2.381
X-2.381Y-45.244
X0.794Y-28.734
X2.381Y-64.294
X3.175Y-104.934
X5.556Y-85.884
X7.144Y-26.194
X9.525Y-102.394
X10.319Y-47.784
X11.906Y-83.344
X15.081Y-66.834
X16.669Y-45.244
X19.844Y-0.159
X19.844Y-28.734
X21.431Y-64.294
X24.606Y-85.884
X26.194Y2.381
X26.194Y-26.194
X26.987Y-104.934
X29.369Y-47.784
X30.956Y-83.344
X33.337Y-102.394
X34.131Y-66.834
X35.719Y-45.244
X38.894Y-0.159
X38.894Y-28.734
X40.481Y-64.294
X45.244Y2.381
X45.244Y-26.194
X48.419Y-47.784
X50.8Y-104.934
X53.181Y-66.834
X54.769Y-45.244
X57.15Y-102.394
X57.944Y-0.159
X59.531Y-64.294
X60.325Y-85.884
X64.294Y2.381
X66.675Y-83.344
X67.469Y-28.734
X73.819Y-26.194
X74.612Y-57.309
X74.612Y-104.934
X76.994Y-0.159
X80.962Y-54.769
X80.962Y-102.394
X83.344Y2.381
X129.54Y-28.734
X129.54Y-47.784
X129.54Y-104.934
X135.89Y-26.194
X135.89Y-45.244
X135.89Y-102.394
X148.59Y-28.734
X148.59Y-47.784
X148.59Y-85.884
X148.59Y-104.934
X154.94Y-26.194
X154.94Y-45.244
X154.94Y-83.344
X154.94Y-102.394
X167.64Y-28.734
X167.64Y-47.784
X167.64Y-104.934
X173.99Y-26.194
X173.99Y-45.244
X173.99Y-102.394
M30
