%TF.GenerationSoftware,KiCad,Pcbnew,10.0.5*%
%TF.CreationDate,2026-07-30T00:23:19+02:00*%
%TF.ProjectId,custom_keyboard,63757374-6f6d-45f6-9b65-79626f617264,rev?*%
%TF.SameCoordinates,Original*%
%TF.FileFunction,Soldermask,Bot*%
%TF.FilePolarity,Negative*%
%FSLAX46Y46*%
G04 Gerber Fmt 4.6, Leading zero omitted, Abs format (unit mm)*
G04 Created by KiCad (PCBNEW 10.0.5) date 2026-07-30 00:23:19*
%MOMM*%
%LPD*%
G01*
G04 APERTURE LIST*
G04 Aperture macros list*
%AMRoundRect*
0 Rectangle with rounded corners*
0 $1 Rounding radius*
0 $2 $3 $4 $5 $6 $7 $8 $9 X,Y pos of 4 corners*
0 Add a 4 corners polygon primitive as box body*
4,1,4,$2,$3,$4,$5,$6,$7,$8,$9,$2,$3,0*
0 Add four circle primitives for the rounded corners*
1,1,$1+$1,$2,$3*
1,1,$1+$1,$4,$5*
1,1,$1+$1,$6,$7*
1,1,$1+$1,$8,$9*
0 Add four rect primitives between the rounded corners*
20,1,$1+$1,$2,$3,$4,$5,0*
20,1,$1+$1,$4,$5,$6,$7,0*
20,1,$1+$1,$6,$7,$8,$9,0*
20,1,$1+$1,$8,$9,$2,$3,0*%
G04 Aperture macros list end*
%ADD10RoundRect,0.250000X0.550000X-0.550000X0.550000X0.550000X-0.550000X0.550000X-0.550000X-0.550000X0*%
%ADD11C,1.600000*%
%ADD12C,1.750000*%
%ADD13C,3.987800*%
%ADD14C,2.300000*%
%ADD15C,3.048000*%
%ADD16C,2.200000*%
%ADD17C,1.850000*%
G04 APERTURE END LIST*
D10*
%TO.C,D57*%
X9366250Y-74136250D03*
D11*
X9366250Y-66516250D03*
%TD*%
D10*
%TO.C,D41*%
X-33496250Y-55086250D03*
D11*
X-33496250Y-47466250D03*
%TD*%
D12*
%TO.C,SW40*%
X-67151250Y-50323750D03*
D13*
X-62071250Y-50323750D03*
D12*
X-56991250Y-50323750D03*
D14*
X-65881250Y-47783750D03*
X-59531250Y-45243750D03*
%TD*%
D10*
%TO.C,D42*%
X-14446250Y-55086250D03*
D11*
X-14446250Y-47466250D03*
%TD*%
D12*
%TO.C,SW62*%
X-167163750Y-88423750D03*
D13*
X-162083750Y-88423750D03*
D12*
X-157003750Y-88423750D03*
D14*
X-165893750Y-85883750D03*
X-159543750Y-83343750D03*
%TD*%
D10*
%TO.C,D12*%
X71278750Y-7461250D03*
D11*
X71278750Y158750D03*
%TD*%
D10*
%TO.C,D14*%
X142875000Y-35956902D03*
D11*
X142875000Y-28336902D03*
%TD*%
D15*
%TO.C,S1*%
X59372500Y-24288750D03*
D13*
X59372500Y-39528750D03*
D15*
X83185000Y-24288750D03*
D13*
X83185000Y-39528750D03*
%TD*%
D10*
%TO.C,D59*%
X47466250Y-74136250D03*
D11*
X47466250Y-66516250D03*
%TD*%
D12*
%TO.C,SW54*%
X-62388750Y-69373750D03*
D13*
X-57308750Y-69373750D03*
D12*
X-52228750Y-69373750D03*
D14*
X-61118750Y-66833750D03*
X-54768750Y-64293750D03*
%TD*%
D12*
%TO.C,SW61*%
X-188595000Y-88423750D03*
D13*
X-183515000Y-88423750D03*
D12*
X-178435000Y-88423750D03*
D14*
X-187325000Y-85883750D03*
X-180975000Y-83343750D03*
%TD*%
D12*
%TO.C,SW73*%
X59055000Y-88423750D03*
D13*
X64135000Y-88423750D03*
D12*
X69215000Y-88423750D03*
D14*
X60325000Y-85883750D03*
X66675000Y-83343750D03*
%TD*%
D10*
%TO.C,D82*%
X90328750Y-112236250D03*
D11*
X90328750Y-104616250D03*
%TD*%
D10*
%TO.C,D69*%
X-19208750Y-93186250D03*
D11*
X-19208750Y-85566250D03*
%TD*%
D10*
%TO.C,D45*%
X42703750Y-55086250D03*
D11*
X42703750Y-47466250D03*
%TD*%
D15*
%TO.C,S4*%
X-114458750Y-100488750D03*
D13*
X-114458750Y-115728750D03*
D15*
X-14446250Y-100488750D03*
D13*
X-14446250Y-115728750D03*
%TD*%
D12*
%TO.C,SW53*%
X-81438750Y-69373750D03*
D13*
X-76358750Y-69373750D03*
D12*
X-71278750Y-69373750D03*
D14*
X-80168750Y-66833750D03*
X-73818750Y-64293750D03*
%TD*%
D10*
%TO.C,D20*%
X-119221250Y-36036250D03*
D11*
X-119221250Y-28416250D03*
%TD*%
D10*
%TO.C,D83*%
X142875000Y-112236250D03*
D11*
X142875000Y-104616250D03*
%TD*%
D12*
%TO.C,SW79*%
X1905000Y-107473750D03*
D13*
X6985000Y-107473750D03*
D12*
X12065000Y-107473750D03*
D14*
X3175000Y-104933750D03*
X9525000Y-102393750D03*
%TD*%
D12*
%TO.C,SW49*%
X-157638750Y-69373750D03*
D13*
X-152558750Y-69373750D03*
D12*
X-147478750Y-69373750D03*
D14*
X-156368750Y-66833750D03*
X-150018750Y-64293750D03*
%TD*%
D12*
%TO.C,SW10*%
X18573750Y-2698750D03*
D13*
X23653750Y-2698750D03*
D12*
X28733750Y-2698750D03*
D14*
X19843750Y-158750D03*
X26193750Y2381250D03*
%TD*%
D10*
%TO.C,D67*%
X-57308750Y-93186250D03*
D11*
X-57308750Y-85566250D03*
%TD*%
D12*
%TO.C,SW14*%
X128270000Y-31273750D03*
D13*
X133350000Y-31273750D03*
D12*
X138430000Y-31273750D03*
D14*
X129540000Y-28733750D03*
X135890000Y-26193750D03*
%TD*%
D10*
%TO.C,D56*%
X-9683750Y-74136250D03*
D11*
X-9683750Y-66516250D03*
%TD*%
D12*
%TO.C,SW16*%
X166370000Y-31273750D03*
D13*
X171450000Y-31273750D03*
D12*
X176530000Y-31273750D03*
D14*
X167640000Y-28733750D03*
X173990000Y-26193750D03*
%TD*%
D10*
%TO.C,D35*%
X-147796250Y-55086250D03*
D11*
X-147796250Y-47466250D03*
%TD*%
D12*
%TO.C,SW7*%
X-48101250Y-2698750D03*
D13*
X-43021250Y-2698750D03*
D12*
X-37941250Y-2698750D03*
D14*
X-46831250Y-158750D03*
X-40481250Y2381250D03*
%TD*%
D12*
%TO.C,SW45*%
X28098750Y-50323750D03*
D13*
X33178750Y-50323750D03*
D12*
X38258750Y-50323750D03*
D14*
X29368750Y-47783750D03*
X35718750Y-45243750D03*
%TD*%
D12*
%TO.C,SW84*%
X147320000Y-107473750D03*
D13*
X152400000Y-107473750D03*
D12*
X157480000Y-107473750D03*
D14*
X148590000Y-104933750D03*
X154940000Y-102393750D03*
%TD*%
D12*
%TO.C,SW74*%
X147320000Y-88423750D03*
D13*
X152400000Y-88423750D03*
D12*
X157480000Y-88423750D03*
D14*
X148590000Y-85883750D03*
X154940000Y-83343750D03*
%TD*%
D10*
%TO.C,D70*%
X-158750Y-93186250D03*
D11*
X-158750Y-85566250D03*
%TD*%
D10*
%TO.C,D10*%
X33178750Y-7461250D03*
D11*
X33178750Y158750D03*
%TD*%
D12*
%TO.C,SW65*%
X-110013750Y-88423750D03*
D13*
X-104933750Y-88423750D03*
D12*
X-99853750Y-88423750D03*
D14*
X-108743750Y-85883750D03*
X-102393750Y-83343750D03*
%TD*%
D10*
%TO.C,D81*%
X66516250Y-112236250D03*
D11*
X66516250Y-104616250D03*
%TD*%
D12*
%TO.C,SW81*%
X49530000Y-107473750D03*
D13*
X54610000Y-107473750D03*
D12*
X59690000Y-107473750D03*
D14*
X50800000Y-104933750D03*
X57150000Y-102393750D03*
%TD*%
D10*
%TO.C,D76*%
X-147796250Y-112236250D03*
D11*
X-147796250Y-104616250D03*
%TD*%
D12*
%TO.C,SW25*%
X-38576250Y-31273750D03*
D13*
X-33496250Y-31273750D03*
D12*
X-28416250Y-31273750D03*
D14*
X-37306250Y-28733750D03*
X-30956250Y-26193750D03*
%TD*%
D10*
%TO.C,D4*%
X-100171250Y-7461250D03*
D11*
X-100171250Y158750D03*
%TD*%
D12*
%TO.C,SW64*%
X-129063750Y-88423750D03*
D13*
X-123983750Y-88423750D03*
D12*
X-118903750Y-88423750D03*
D14*
X-127793750Y-85883750D03*
X-121443750Y-83343750D03*
%TD*%
D10*
%TO.C,D49*%
X-143033750Y-74136250D03*
D11*
X-143033750Y-66516250D03*
%TD*%
D10*
%TO.C,D63*%
X-133508750Y-93186250D03*
D11*
X-133508750Y-85566250D03*
%TD*%
D12*
%TO.C,SW83*%
X128270000Y-107473750D03*
D13*
X133350000Y-107473750D03*
D12*
X138430000Y-107473750D03*
D14*
X129540000Y-104933750D03*
X135890000Y-102393750D03*
%TD*%
D10*
%TO.C,D2*%
X-138271250Y-7461250D03*
D11*
X-138271250Y158750D03*
%TD*%
D10*
%TO.C,D85*%
X180975000Y-112236250D03*
D11*
X180975000Y-104616250D03*
%TD*%
D10*
%TO.C,D34*%
X-166846250Y-55086250D03*
D11*
X-166846250Y-47466250D03*
%TD*%
D12*
%TO.C,SW27*%
X-476250Y-31273750D03*
D13*
X4603750Y-31273750D03*
D12*
X9683750Y-31273750D03*
D14*
X793750Y-28733750D03*
X7143750Y-26193750D03*
%TD*%
D10*
%TO.C,D24*%
X-43021250Y-36036250D03*
D11*
X-43021250Y-28416250D03*
%TD*%
D10*
%TO.C,D80*%
X42703750Y-112236250D03*
D11*
X42703750Y-104616250D03*
%TD*%
D12*
%TO.C,SW69*%
X-33813750Y-88423750D03*
D13*
X-28733750Y-88423750D03*
D12*
X-23653750Y-88423750D03*
D14*
X-32543750Y-85883750D03*
X-26193750Y-83343750D03*
%TD*%
D12*
%TO.C,SW78*%
X-69532500Y-107473750D03*
D13*
X-64452500Y-107473750D03*
D12*
X-59372500Y-107473750D03*
D14*
X-68262500Y-104933750D03*
X-61912500Y-102393750D03*
%TD*%
D12*
%TO.C,SW60*%
X51911250Y-69373750D03*
D13*
X56991250Y-69373750D03*
D12*
X62071250Y-69373750D03*
D14*
X53181250Y-66833750D03*
X59531250Y-64293750D03*
%TD*%
D12*
%TO.C,SW3*%
X-133826250Y-2698750D03*
D13*
X-128746250Y-2698750D03*
D12*
X-123666250Y-2698750D03*
D14*
X-132556250Y-158750D03*
X-126206250Y2381250D03*
%TD*%
D10*
%TO.C,D28*%
X33178750Y-36036250D03*
D11*
X33178750Y-28416250D03*
%TD*%
D10*
%TO.C,D19*%
X-138271250Y-36036250D03*
D11*
X-138271250Y-28416250D03*
%TD*%
D10*
%TO.C,D51*%
X-104933750Y-74136250D03*
D11*
X-104933750Y-66516250D03*
%TD*%
D12*
%TO.C,SW85*%
X166370000Y-107473750D03*
D13*
X171450000Y-107473750D03*
D12*
X176530000Y-107473750D03*
D14*
X167640000Y-104933750D03*
X173990000Y-102393750D03*
%TD*%
D10*
%TO.C,D25*%
X-23971250Y-36036250D03*
D11*
X-23971250Y-28416250D03*
%TD*%
D12*
%TO.C,SW82*%
X73342500Y-107473750D03*
D13*
X78422500Y-107473750D03*
D12*
X83502500Y-107473750D03*
D14*
X74612500Y-104933750D03*
X80962500Y-102393750D03*
%TD*%
D10*
%TO.C,D40*%
X-52546250Y-55086250D03*
D11*
X-52546250Y-47466250D03*
%TD*%
D12*
%TO.C,SW28*%
X18573750Y-31273750D03*
D13*
X23653750Y-31273750D03*
D12*
X28733750Y-31273750D03*
D14*
X19843750Y-28733750D03*
X26193750Y-26193750D03*
%TD*%
D12*
%TO.C,SW1*%
X-190976250Y-2698750D03*
D13*
X-185896250Y-2698750D03*
D12*
X-180816250Y-2698750D03*
D14*
X-189706250Y-158750D03*
X-183356250Y2381250D03*
%TD*%
D12*
%TO.C,SW77*%
X-140970000Y-107473750D03*
D13*
X-135890000Y-107473750D03*
D12*
X-130810000Y-107473750D03*
D14*
X-139700000Y-104933750D03*
X-133350000Y-102393750D03*
%TD*%
D12*
%TO.C,SW31*%
X128270000Y-50323750D03*
D13*
X133350000Y-50323750D03*
D12*
X138430000Y-50323750D03*
D14*
X129540000Y-47783750D03*
X135890000Y-45243750D03*
%TD*%
D10*
%TO.C,D54*%
X-47783750Y-74136250D03*
D11*
X-47783750Y-66516250D03*
%TD*%
D12*
%TO.C,SW5*%
X-95726250Y-2698750D03*
D13*
X-90646250Y-2698750D03*
D12*
X-85566250Y-2698750D03*
D14*
X-94456250Y-158750D03*
X-88106250Y2381250D03*
%TD*%
D10*
%TO.C,D36*%
X-128746250Y-55086250D03*
D11*
X-128746250Y-47466250D03*
%TD*%
D12*
%TO.C,SW36*%
X-143351250Y-50323750D03*
D13*
X-138271250Y-50323750D03*
D12*
X-133191250Y-50323750D03*
D14*
X-142081250Y-47783750D03*
X-135731250Y-45243750D03*
%TD*%
D12*
%TO.C,SW35*%
X-162401250Y-50323750D03*
D13*
X-157321250Y-50323750D03*
D12*
X-152241250Y-50323750D03*
D14*
X-161131250Y-47783750D03*
X-154781250Y-45243750D03*
%TD*%
D10*
%TO.C,D5*%
X-81121250Y-7461250D03*
D11*
X-81121250Y158750D03*
%TD*%
D12*
%TO.C,SW34*%
X-186213750Y-50323750D03*
D13*
X-181133750Y-50323750D03*
D12*
X-176053750Y-50323750D03*
D14*
X-184943750Y-47783750D03*
X-178593750Y-45243750D03*
%TD*%
D10*
%TO.C,D84*%
X161925000Y-112236250D03*
D11*
X161925000Y-104616250D03*
%TD*%
D12*
%TO.C,SW58*%
X13811250Y-69373750D03*
D13*
X18891250Y-69373750D03*
D12*
X23971250Y-69373750D03*
D14*
X15081250Y-66833750D03*
X21431250Y-64293750D03*
%TD*%
D12*
%TO.C,SW19*%
X-152876250Y-31273750D03*
D13*
X-147796250Y-31273750D03*
D12*
X-142716250Y-31273750D03*
D14*
X-151606250Y-28733750D03*
X-145256250Y-26193750D03*
%TD*%
D10*
%TO.C,D27*%
X14128750Y-36036250D03*
D11*
X14128750Y-28416250D03*
%TD*%
D10*
%TO.C,D31*%
X142875000Y-55086250D03*
D11*
X142875000Y-47466250D03*
%TD*%
D10*
%TO.C,D64*%
X-114458750Y-93186250D03*
D11*
X-114458750Y-85566250D03*
%TD*%
D10*
%TO.C,D18*%
X-157321250Y-36036250D03*
D11*
X-157321250Y-28416250D03*
%TD*%
D10*
%TO.C,D32*%
X161925000Y-55245000D03*
D11*
X161925000Y-47625000D03*
%TD*%
D12*
%TO.C,SW55*%
X-43338750Y-69373750D03*
D13*
X-38258750Y-69373750D03*
D12*
X-33178750Y-69373750D03*
D14*
X-42068750Y-66833750D03*
X-35718750Y-64293750D03*
%TD*%
D10*
%TO.C,D30*%
X90328750Y-36036250D03*
D11*
X90328750Y-28416250D03*
%TD*%
D12*
%TO.C,SW33*%
X166370000Y-50323750D03*
D13*
X171450000Y-50323750D03*
D12*
X176530000Y-50323750D03*
D14*
X167640000Y-47783750D03*
X173990000Y-45243750D03*
%TD*%
D12*
%TO.C,SW44*%
X9048750Y-50323750D03*
D13*
X14128750Y-50323750D03*
D12*
X19208750Y-50323750D03*
D14*
X10318750Y-47783750D03*
X16668750Y-45243750D03*
%TD*%
D10*
%TO.C,D7*%
X-33496250Y-7461250D03*
D11*
X-33496250Y158750D03*
%TD*%
D10*
%TO.C,D46*%
X61753750Y-55086250D03*
D11*
X61753750Y-47466250D03*
%TD*%
D15*
%TO.C,S2*%
X71437500Y-47942500D03*
X71437500Y-71755000D03*
D13*
X86677500Y-47942500D03*
X86677500Y-71755000D03*
%TD*%
D10*
%TO.C,D75*%
X-171608750Y-112236250D03*
D11*
X-171608750Y-104616250D03*
%TD*%
D10*
%TO.C,D37*%
X-109696250Y-55086250D03*
D11*
X-109696250Y-47466250D03*
%TD*%
D10*
%TO.C,D78*%
X-4921250Y-112236250D03*
D11*
X-4921250Y-104616250D03*
%TD*%
D12*
%TO.C,SW9*%
X-10001250Y-2698750D03*
D13*
X-4921250Y-2698750D03*
D12*
X158750Y-2698750D03*
D14*
X-8731250Y-158750D03*
X-2381250Y2381250D03*
%TD*%
D12*
%TO.C,SW52*%
X-100488750Y-69373750D03*
D13*
X-95408750Y-69373750D03*
D12*
X-90328750Y-69373750D03*
D14*
X-99218750Y-66833750D03*
X-92868750Y-64293750D03*
%TD*%
D12*
%TO.C,SW20*%
X-133826250Y-31273750D03*
D13*
X-128746250Y-31273750D03*
D12*
X-123666250Y-31273750D03*
D14*
X-132556250Y-28733750D03*
X-126206250Y-26193750D03*
%TD*%
D10*
%TO.C,D55*%
X-28733750Y-74136250D03*
D11*
X-28733750Y-66516250D03*
%TD*%
D10*
%TO.C,D39*%
X-71596250Y-55086250D03*
D11*
X-71596250Y-47466250D03*
%TD*%
D12*
%TO.C,SW48*%
X-183832500Y-69373750D03*
D13*
X-178752500Y-69373750D03*
D12*
X-173672500Y-69373750D03*
D14*
X-182562500Y-66833750D03*
X-176212500Y-64293750D03*
%TD*%
D12*
%TO.C,SW59*%
X32861250Y-69373750D03*
D13*
X37941250Y-69373750D03*
D12*
X43021250Y-69373750D03*
D14*
X34131250Y-66833750D03*
X40481250Y-64293750D03*
%TD*%
D10*
%TO.C,D9*%
X4603750Y-7461250D03*
D11*
X4603750Y158750D03*
%TD*%
D12*
%TO.C,SW21*%
X-114776250Y-31273750D03*
D13*
X-109696250Y-31273750D03*
D12*
X-104616250Y-31273750D03*
D14*
X-113506250Y-28733750D03*
X-107156250Y-26193750D03*
%TD*%
D10*
%TO.C,D48*%
X-162083750Y-74136250D03*
D11*
X-162083750Y-66516250D03*
%TD*%
D12*
%TO.C,SW29*%
X37623750Y-31273750D03*
D13*
X42703750Y-31273750D03*
D12*
X47783750Y-31273750D03*
D14*
X38893750Y-28733750D03*
X45243750Y-26193750D03*
%TD*%
D10*
%TO.C,D77*%
X-123983750Y-112236250D03*
D11*
X-123983750Y-104616250D03*
%TD*%
D10*
%TO.C,D60*%
X66516250Y-74136250D03*
D11*
X66516250Y-66516250D03*
%TD*%
D10*
%TO.C,D66*%
X-76358750Y-93186250D03*
D11*
X-76358750Y-85566250D03*
%TD*%
D12*
%TO.C,SW15*%
X147320000Y-31273750D03*
D13*
X152400000Y-31273750D03*
D12*
X157480000Y-31273750D03*
D14*
X148590000Y-28733750D03*
X154940000Y-26193750D03*
%TD*%
D12*
%TO.C,SW13*%
X75723750Y-2698750D03*
D13*
X80803750Y-2698750D03*
D12*
X85883750Y-2698750D03*
D14*
X76993750Y-158750D03*
X83343750Y2381250D03*
%TD*%
D10*
%TO.C,D52*%
X-85883750Y-74136250D03*
D11*
X-85883750Y-66516250D03*
%TD*%
D10*
%TO.C,D62*%
X-152558750Y-93186250D03*
D11*
X-152558750Y-85566250D03*
%TD*%
D12*
%TO.C,SW47*%
X73342500Y-59848750D03*
D13*
X78422500Y-59848750D03*
D12*
X83502500Y-59848750D03*
D14*
X74612500Y-57308750D03*
X80962500Y-54768750D03*
%TD*%
D10*
%TO.C,D21*%
X-100171250Y-36036250D03*
D11*
X-100171250Y-28416250D03*
%TD*%
D10*
%TO.C,D15*%
X161925000Y-35956902D03*
D11*
X161925000Y-28336902D03*
%TD*%
D10*
%TO.C,D13*%
X90328750Y-7461250D03*
D11*
X90328750Y158750D03*
%TD*%
D10*
%TO.C,D74*%
X161925000Y-93186250D03*
D11*
X161925000Y-85566250D03*
%TD*%
D12*
%TO.C,SW23*%
X-76676250Y-31273750D03*
D13*
X-71596250Y-31273750D03*
D12*
X-66516250Y-31273750D03*
D14*
X-75406250Y-28733750D03*
X-69056250Y-26193750D03*
%TD*%
D12*
%TO.C,SW18*%
X-171926250Y-31273750D03*
D13*
X-166846250Y-31273750D03*
D12*
X-161766250Y-31273750D03*
D14*
X-170656250Y-28733750D03*
X-164306250Y-26193750D03*
%TD*%
D12*
%TO.C,SW4*%
X-114776250Y-2698750D03*
D13*
X-109696250Y-2698750D03*
D12*
X-104616250Y-2698750D03*
D14*
X-113506250Y-158750D03*
X-107156250Y2381250D03*
%TD*%
D10*
%TO.C,D11*%
X52228750Y-7461250D03*
D11*
X52228750Y158750D03*
%TD*%
D12*
%TO.C,SW43*%
X-10001250Y-50323750D03*
D13*
X-4921250Y-50323750D03*
D12*
X158750Y-50323750D03*
D14*
X-8731250Y-47783750D03*
X-2381250Y-45243750D03*
%TD*%
D10*
%TO.C,D50*%
X-123983750Y-74136250D03*
D11*
X-123983750Y-66516250D03*
%TD*%
D10*
%TO.C,D61*%
X-171608750Y-93186250D03*
D11*
X-171608750Y-85566250D03*
%TD*%
D10*
%TO.C,D23*%
X-62071250Y-36036250D03*
D11*
X-62071250Y-28416250D03*
%TD*%
D12*
%TO.C,SW80*%
X25717500Y-107473750D03*
D13*
X30797500Y-107473750D03*
D12*
X35877500Y-107473750D03*
D14*
X26987500Y-104933750D03*
X33337500Y-102393750D03*
%TD*%
D10*
%TO.C,D8*%
X-14446250Y-7461250D03*
D11*
X-14446250Y158750D03*
%TD*%
D10*
%TO.C,D26*%
X-4921250Y-36036250D03*
D11*
X-4921250Y-28416250D03*
%TD*%
D12*
%TO.C,SW42*%
X-29051250Y-50323750D03*
D13*
X-23971250Y-50323750D03*
D12*
X-18891250Y-50323750D03*
D14*
X-27781250Y-47783750D03*
X-21431250Y-45243750D03*
%TD*%
D12*
%TO.C,SW2*%
X-152876250Y-2698750D03*
D13*
X-147796250Y-2698750D03*
D12*
X-142716250Y-2698750D03*
D14*
X-151606250Y-158750D03*
X-145256250Y2381250D03*
%TD*%
D12*
%TO.C,SW22*%
X-95726250Y-31273750D03*
D13*
X-90646250Y-31273750D03*
D12*
X-85566250Y-31273750D03*
D14*
X-94456250Y-28733750D03*
X-88106250Y-26193750D03*
%TD*%
D10*
%TO.C,D33*%
X180975000Y-55086250D03*
D11*
X180975000Y-47466250D03*
%TD*%
D12*
%TO.C,SW41*%
X-48101250Y-50323750D03*
D13*
X-43021250Y-50323750D03*
D12*
X-37941250Y-50323750D03*
D14*
X-46831250Y-47783750D03*
X-40481250Y-45243750D03*
%TD*%
D12*
%TO.C,SW46*%
X47148750Y-50323750D03*
D13*
X52228750Y-50323750D03*
D12*
X57308750Y-50323750D03*
D14*
X48418750Y-47783750D03*
X54768750Y-45243750D03*
%TD*%
D12*
%TO.C,SW51*%
X-119538750Y-69373750D03*
D13*
X-114458750Y-69373750D03*
D12*
X-109378750Y-69373750D03*
D14*
X-118268750Y-66833750D03*
X-111918750Y-64293750D03*
%TD*%
D12*
%TO.C,SW38*%
X-105251250Y-50323750D03*
D13*
X-100171250Y-50323750D03*
D12*
X-95091250Y-50323750D03*
D14*
X-103981250Y-47783750D03*
X-97631250Y-45243750D03*
%TD*%
D12*
%TO.C,SW75*%
X-188595000Y-107473750D03*
D13*
X-183515000Y-107473750D03*
D12*
X-178435000Y-107473750D03*
D14*
X-187325000Y-104933750D03*
X-180975000Y-102393750D03*
%TD*%
D12*
%TO.C,SW63*%
X-148113750Y-88423750D03*
D13*
X-143033750Y-88423750D03*
D12*
X-137953750Y-88423750D03*
D14*
X-146843750Y-85883750D03*
X-140493750Y-83343750D03*
%TD*%
D10*
%TO.C,D65*%
X-95408750Y-93186250D03*
D11*
X-95408750Y-85566250D03*
%TD*%
D16*
%TO.C,A1*%
X104431250Y9712500D03*
D17*
X104731250Y6682500D03*
X109581250Y6682500D03*
D16*
X109881250Y9712500D03*
%TD*%
D10*
%TO.C,D73*%
X90328750Y-93186250D03*
D11*
X90328750Y-85566250D03*
%TD*%
D12*
%TO.C,SW30*%
X66198750Y-31273750D03*
D13*
X71278750Y-31273750D03*
D12*
X76358750Y-31273750D03*
D14*
X67468750Y-28733750D03*
X73818750Y-26193750D03*
%TD*%
D10*
%TO.C,D71*%
X18891250Y-93186250D03*
D11*
X18891250Y-85566250D03*
%TD*%
D12*
%TO.C,SW68*%
X-52863750Y-88423750D03*
D13*
X-47783750Y-88423750D03*
D12*
X-42703750Y-88423750D03*
D14*
X-51593750Y-85883750D03*
X-45243750Y-83343750D03*
%TD*%
D10*
%TO.C,D3*%
X-119221250Y-7461250D03*
D11*
X-119221250Y158750D03*
%TD*%
D12*
%TO.C,SW76*%
X-164782500Y-107473750D03*
D13*
X-159702500Y-107473750D03*
D12*
X-154622500Y-107473750D03*
D14*
X-163512500Y-104933750D03*
X-157162500Y-102393750D03*
%TD*%
D10*
%TO.C,D72*%
X37941250Y-93186250D03*
D11*
X37941250Y-85566250D03*
%TD*%
D10*
%TO.C,D1*%
X-176371250Y-7461250D03*
D11*
X-176371250Y158750D03*
%TD*%
D12*
%TO.C,SW72*%
X23336250Y-88423750D03*
D13*
X28416250Y-88423750D03*
D12*
X33496250Y-88423750D03*
D14*
X24606250Y-85883750D03*
X30956250Y-83343750D03*
%TD*%
D10*
%TO.C,D16*%
X180975152Y-35956902D03*
D11*
X180975152Y-28336902D03*
%TD*%
D10*
%TO.C,D79*%
X18891250Y-112236250D03*
D11*
X18891250Y-104616250D03*
%TD*%
D15*
%TO.C,S3*%
X52228750Y-81438750D03*
D13*
X52228750Y-96678750D03*
D15*
X76041250Y-81438750D03*
D13*
X76041250Y-96678750D03*
%TD*%
D12*
%TO.C,SW37*%
X-124301250Y-50323750D03*
D13*
X-119221250Y-50323750D03*
D12*
X-114141250Y-50323750D03*
D14*
X-123031250Y-47783750D03*
X-116681250Y-45243750D03*
%TD*%
D12*
%TO.C,SW71*%
X4286250Y-88423750D03*
D13*
X9366250Y-88423750D03*
D12*
X14446250Y-88423750D03*
D14*
X5556250Y-85883750D03*
X11906250Y-83343750D03*
%TD*%
D10*
%TO.C,D68*%
X-38258750Y-93186250D03*
D11*
X-38258750Y-85566250D03*
%TD*%
D10*
%TO.C,D43*%
X4603750Y-55086250D03*
D11*
X4603750Y-47466250D03*
%TD*%
D12*
%TO.C,SW11*%
X37623750Y-2698750D03*
D13*
X42703750Y-2698750D03*
D12*
X47783750Y-2698750D03*
D14*
X38893750Y-158750D03*
X45243750Y2381250D03*
%TD*%
D10*
%TO.C,D17*%
X-176371250Y-36036250D03*
D11*
X-176371250Y-28416250D03*
%TD*%
D10*
%TO.C,D58*%
X28416250Y-74136250D03*
D11*
X28416250Y-66516250D03*
%TD*%
D10*
%TO.C,D53*%
X-66833750Y-74136250D03*
D11*
X-66833750Y-66516250D03*
%TD*%
D12*
%TO.C,SW67*%
X-71913750Y-88423750D03*
D13*
X-66833750Y-88423750D03*
D12*
X-61753750Y-88423750D03*
D14*
X-70643750Y-85883750D03*
X-64293750Y-83343750D03*
%TD*%
D10*
%TO.C,D38*%
X-90646250Y-55086250D03*
D11*
X-90646250Y-47466250D03*
%TD*%
D10*
%TO.C,D22*%
X-81121250Y-36036250D03*
D11*
X-81121250Y-28416250D03*
%TD*%
D12*
%TO.C,SW24*%
X-57626250Y-31273750D03*
D13*
X-52546250Y-31273750D03*
D12*
X-47466250Y-31273750D03*
D14*
X-56356250Y-28733750D03*
X-50006250Y-26193750D03*
%TD*%
D12*
%TO.C,SW50*%
X-138588750Y-69373750D03*
D13*
X-133508750Y-69373750D03*
D12*
X-128428750Y-69373750D03*
D14*
X-137318750Y-66833750D03*
X-130968750Y-64293750D03*
%TD*%
D12*
%TO.C,SW56*%
X-24288750Y-69373750D03*
D13*
X-19208750Y-69373750D03*
D12*
X-14128750Y-69373750D03*
D14*
X-23018750Y-66833750D03*
X-16668750Y-64293750D03*
%TD*%
D10*
%TO.C,D6*%
X-52546250Y-7461250D03*
D11*
X-52546250Y158750D03*
%TD*%
D12*
%TO.C,SW57*%
X-5238750Y-69373750D03*
D13*
X-158750Y-69373750D03*
D12*
X4921250Y-69373750D03*
D14*
X-3968750Y-66833750D03*
X2381250Y-64293750D03*
%TD*%
D12*
%TO.C,SW6*%
X-67151250Y-2698750D03*
D13*
X-62071250Y-2698750D03*
D12*
X-56991250Y-2698750D03*
D14*
X-65881250Y-158750D03*
X-59531250Y2381250D03*
%TD*%
D12*
%TO.C,SW12*%
X56673750Y-2698750D03*
D13*
X61753750Y-2698750D03*
D12*
X66833750Y-2698750D03*
D14*
X57943750Y-158750D03*
X64293750Y2381250D03*
%TD*%
D10*
%TO.C,D29*%
X52228750Y-36036250D03*
D11*
X52228750Y-28416250D03*
%TD*%
D12*
%TO.C,SW70*%
X-14763750Y-88423750D03*
D13*
X-9683750Y-88423750D03*
D12*
X-4603750Y-88423750D03*
D14*
X-13493750Y-85883750D03*
X-7143750Y-83343750D03*
%TD*%
D10*
%TO.C,D47*%
X90328750Y-55086250D03*
D11*
X90328750Y-47466250D03*
%TD*%
D12*
%TO.C,SW32*%
X147320000Y-50323750D03*
D13*
X152400000Y-50323750D03*
D12*
X157480000Y-50323750D03*
D14*
X148590000Y-47783750D03*
X154940000Y-45243750D03*
%TD*%
D12*
%TO.C,SW66*%
X-90963750Y-88423750D03*
D13*
X-85883750Y-88423750D03*
D12*
X-80803750Y-88423750D03*
D14*
X-89693750Y-85883750D03*
X-83343750Y-83343750D03*
%TD*%
D12*
%TO.C,SW39*%
X-86201250Y-50323750D03*
D13*
X-81121250Y-50323750D03*
D12*
X-76041250Y-50323750D03*
D14*
X-84931250Y-47783750D03*
X-78581250Y-45243750D03*
%TD*%
D12*
%TO.C,SW8*%
X-29051250Y-2698750D03*
D13*
X-23971250Y-2698750D03*
D12*
X-18891250Y-2698750D03*
D14*
X-27781250Y-158750D03*
X-21431250Y2381250D03*
%TD*%
D10*
%TO.C,D44*%
X23653750Y-55086250D03*
D11*
X23653750Y-47466250D03*
%TD*%
D12*
%TO.C,SW17*%
X-190976250Y-31273750D03*
D13*
X-185896250Y-31273750D03*
D12*
X-180816250Y-31273750D03*
D14*
X-189706250Y-28733750D03*
X-183356250Y-26193750D03*
%TD*%
D12*
%TO.C,SW26*%
X-19526250Y-31273750D03*
D13*
X-14446250Y-31273750D03*
D12*
X-9366250Y-31273750D03*
D14*
X-18256250Y-28733750D03*
X-11906250Y-26193750D03*
%TD*%
M02*
