#VRML V2.0 utf8

# Generic 1u keycap shell. VRML coordinates use KiCad's 2.54 mm unit.
# Wider rectangular caps are produced with the footprint model's X scale.
Shape {
  appearance Appearance {
    material Material {
      diffuseColor 0.55 0.78 0.95
      emissiveColor 0.02 0.03 0.04
      specularColor 0.9 0.95 1.0
      shininess 0.8
      transparency 0.58
    }
  }
  geometry IndexedFaceSet {
    coord Coordinate {
      point [
        -3.50394 -3.50394 4.52756,
         3.50394 -3.50394 4.52756,
         3.50394  3.50394 4.52756,
        -3.50394  3.50394 4.52756,
        -2.85433 -2.85433 7.28346,
         2.85433 -2.85433 7.28346,
         2.85433  2.85433 7.28346,
        -2.85433  2.85433 7.28346
      ]
    }
    coordIndex [
      0, 3, 2, 1, -1,
      4, 5, 6, 7, -1,
      0, 1, 5, 4, -1,
      1, 2, 6, 5, -1,
      2, 3, 7, 6, -1,
      3, 0, 4, 7, -1
    ]
    creaseAngle 0.5
    solid FALSE
  }
}
